<svg id="Layer_1" data-name="Layer 1" xmlns="http://www.w3.org/2000/svg" viewBox="0 0 480 480"><defs><style>.cls-1{fill:#518ff5;}.cls-2{fill:#a5c5fa;}.cls-3{fill:#fff;}</style></defs><title>googledocs</title><path class="cls-1" d="M79.37,240.71q0-92.25,0-184.51c0-20,10.71-30.86,30.82-30.9,58.23-.11,116.45,0,174.68-.12,2.71,0,7.77,0,7.77,0s3.58,3.76,5.51,5.7Q346.4,79.45,395,127.67c2,2,5.71,5.36,5.71,5.36s0,5.74,0,8.62q-.23,142.16-.16,284.33c0,16.32-9.65,26.94-26,28.64a80.29,80.29,0,0,1-8.31.2q-126.28,0-252.57,0a57,57,0,0,1-12-.89C86.79,450.66,79.34,441.2,79.33,426q0-92.63,0-185.27Z"/><path class="cls-2" d="M292.65,25.43s101.88,101.65,107.7,107.7c-30.55,0-72.13-.24-85.45-.24s-22.54-10.31-22.54-24.22S292.65,54.71,292.65,25.43Z"/><rect class="cls-3" x="161.38" y="221.05" width="160.82" height="18.16"/><rect class="cls-3" x="161.38" y="257.36" width="160.82" height="18.16"/><rect class="cls-3" x="161.38" y="292.87" width="160.82" height="18.16"/><rect class="cls-3" x="161.38" y="328.91" width="98.72" height="18.16"/></svg>